<?xml version="1.0" encoding="utf-8"?>
<!-- Generator: Adobe Illustrator 25.4.1, SVG Export Plug-In . SVG Version: 6.00 Build 0)  -->
<svg version="1.1" id="Layer_1" xmlns="http://www.w3.org/2000/svg" xmlns:xlink="http://www.w3.org/1999/xlink" x="0px" y="0px"
	 viewBox="0 0 24 24" style="enable-background:new 0 0 24 24;" xml:space="preserve">
<style type="text/css">
	.st0{fill:#2B2B2B;}
</style>
<g>
	<path class="st0" d="M22.2,5.7H20c-0.9,0-1.6-0.7-1.6-1.6V2.8c0-0.9,0.7-1.6,1.6-1.6h1.3c0.9,0,1.6,0.7,1.6,1.6V5
		C22.9,5.4,22.6,5.7,22.2,5.7z M20,2.4c-0.3,0-0.4,0.2-0.4,0.4V4c0,0.2,0.1,0.4,0.4,0.4h1.6V2.8c0-0.2-0.2-0.4-0.4-0.4L20,2.4
		L20,2.4z"/>
	<path class="st0" d="M20.5,9.2c-0.2,0-0.4-0.1-0.5-0.3c-0.2-0.3-0.1-0.7,0.2-0.9c1.1-0.7,1.5-0.9,1.5-3c0-0.3,0.3-0.6,0.6-0.6
		s0.6,0.3,0.6,0.6c0,2.6-0.6,3.2-2.1,4.1C20.7,9.2,20.6,9.2,20.5,9.2z"/>
	<path class="st0" d="M17.1,5.7h-2.3c-0.9,0-1.6-0.7-1.6-1.6V2.8c0-0.9,0.7-1.6,1.6-1.6h1.3c0.9,0,1.6,0.7,1.6,1.6V5
		C17.7,5.4,17.4,5.7,17.1,5.7z M14.8,2.4c-0.3,0-0.4,0.2-0.4,0.4V4c0,0.2,0.1,0.4,0.4,0.4h1.6V2.8c0-0.2-0.2-0.4-0.4-0.4L14.8,2.4
		L14.8,2.4z"/>
	<path class="st0" d="M15.3,9.2c-0.2,0-0.4-0.1-0.5-0.3C14.6,8.6,14.7,8.2,15,8c1.1-0.7,1.5-0.9,1.5-3c0-0.3,0.3-0.6,0.6-0.6
		c0.3,0,0.6,0.3,0.6,0.6c0,2.6-0.6,3.2-2.1,4.1C15.5,9.2,15.4,9.2,15.3,9.2z"/>
</g>
<path class="st0" d="M14.5,22.8h-6c-5.4,0-7.8-2.3-7.8-7.8V9c0-5.4,2.3-7.8,7.8-7.8h2c0.4,0,0.8,0.3,0.8,0.8s-0.4,0.8-0.8,0.8h-2
	C3.9,2.8,2.3,4.4,2.3,9v6c0,4.6,1.6,6.2,6.2,6.2h6c4.6,0,6.2-1.6,6.2-6.2v-2c0-0.4,0.3-0.8,0.8-0.8s0.8,0.3,0.8,0.8v2
	C22.3,20.4,19.9,22.8,14.5,22.8z"/>
<path class="st0" d="M14.5,13.4h-6c-0.4,0-0.8-0.3-0.8-0.8s0.3-0.8,0.8-0.8h6c0.4,0,0.8,0.3,0.8,0.8S14.9,13.4,14.5,13.4z"/>
<path class="st0" d="M13.5,17.4h-4c-0.4,0-0.8-0.3-0.8-0.8s0.3-0.8,0.8-0.8h4c0.4,0,0.8,0.3,0.8,0.8S13.9,17.4,13.5,17.4z"/>
</svg>
