<?xml version="1.0" encoding="utf-8"?>
<!-- Generator: Adobe Illustrator 25.2.3, SVG Export Plug-In . SVG Version: 6.00 Build 0)  -->
<svg version="1.1" id="Layer_1" xmlns="http://www.w3.org/2000/svg" xmlns:xlink="http://www.w3.org/1999/xlink" x="0px" y="0px"
	 viewBox="0 0 134.4 116.4" style="enable-background:new 0 0 134.4 116.4;" xml:space="preserve">
<style type="text/css">
	.st0{fill:#FCFCFC;}
	.st1{fill:#231F20;}
	.st2{fill:#FFFFFF;}
</style>
<rect x="16.1" y="9.4" class="st0" width="103.5" height="104"/>
<g>
	<path class="st1" d="M115,116.4H20.6c-4.1,0-7.5-3.4-7.5-7.5v-95c0-4.1,3.4-7.5,7.5-7.5H115c4.1,0,7.5,3.4,7.5,7.5v95
		C122.5,113,119.1,116.4,115,116.4z M20.6,9.4c-2.5,0-4.5,2-4.5,4.5v95c0,2.5,2,4.5,4.5,4.5H115c2.5,0,4.5-2,4.5-4.5v-95
		c0-2.5-2-4.5-4.5-4.5H20.6z"/>
</g>
<g>
	<rect class="st2" width="29.2" height="29.2"/>
	<g>
		<path d="M8.4,6.4c1.5,0,2.7,0.6,3.7,1.7c0.5,0.5,0.9,1.2,1.2,1.9c0.3,0.8,0.4,1.5,0.4,2.3c0,1.6-0.5,3.2-1.6,4.9
			c-1,1.6-2.5,3-4.2,4.2c-1.5,1-2.7,1.5-3.5,1.5c-0.3,0-0.6-0.1-0.8-0.3c-0.2-0.2-0.3-0.5-0.3-0.8c0-0.5,0.3-0.9,1-1.3
			c1.5-0.8,2.7-1.6,3.4-2.4c0.7-0.7,1-1.3,1-1.6c0-0.3-0.3-0.5-0.8-0.6l-0.3-0.1l-0.4,0c-1.1-0.2-2-0.7-2.7-1.5
			c-0.7-0.9-1-1.9-1-3.1c0-1.3,0.4-2.3,1.3-3.2C5.7,6.9,6.9,6.4,8.4,6.4z"/>
		<path d="M20.6,6.4c1.5,0,2.7,0.6,3.7,1.7c0.5,0.5,0.9,1.2,1.2,1.9c0.3,0.8,0.4,1.5,0.4,2.3c0,1.6-0.5,3.2-1.6,4.9
			c-1,1.6-2.5,3-4.2,4.2c-1.5,1-2.7,1.5-3.5,1.5c-0.3,0-0.6-0.1-0.8-0.3c-0.2-0.2-0.3-0.5-0.3-0.8c0-0.5,0.3-0.9,1-1.3
			c1.5-0.8,2.7-1.6,3.4-2.4c0.7-0.7,1-1.3,1-1.6c0-0.3-0.3-0.5-0.8-0.6l-0.3-0.1l-0.4,0c-1.1-0.2-2-0.7-2.7-1.5
			c-0.7-0.9-1-1.9-1-3.1c0-1.3,0.4-2.3,1.3-3.2C17.9,6.9,19.1,6.4,20.6,6.4z"/>
	</g>
</g>
<g>
	<rect x="104.8" y="87.6" class="st2" width="29.2" height="29.2"/>
	<g>
		<path d="M126.6,110.5c-1.5,0-2.7-0.6-3.7-1.7c-0.5-0.5-0.9-1.2-1.2-1.9c-0.3-0.8-0.4-1.5-0.4-2.3c0-1.6,0.5-3.2,1.6-4.9
			c1-1.6,2.5-3,4.2-4.2c1.5-1,2.7-1.5,3.5-1.5c0.3,0,0.6,0.1,0.8,0.3c0.2,0.2,0.3,0.5,0.3,0.8c0,0.5-0.3,0.9-1,1.3
			c-1.5,0.8-2.7,1.6-3.4,2.4c-0.7,0.7-1,1.3-1,1.6c0,0.3,0.3,0.5,0.8,0.6l0.3,0.1l0.4,0c1.1,0.2,2,0.7,2.7,1.5c0.7,0.9,1,1.9,1,3.1
			c0,1.3-0.4,2.3-1.3,3.2C129.4,109.9,128.1,110.5,126.6,110.5z"/>
		<path d="M114.5,110.5c-1.5,0-2.7-0.6-3.7-1.7c-0.5-0.5-0.9-1.2-1.2-1.9c-0.3-0.8-0.4-1.5-0.4-2.3c0-1.6,0.5-3.2,1.6-4.9
			c1-1.6,2.5-3,4.2-4.2c1.5-1,2.7-1.5,3.5-1.5c0.3,0,0.6,0.1,0.8,0.3c0.2,0.2,0.3,0.5,0.3,0.8c0,0.5-0.3,0.9-1,1.3
			c-1.5,0.8-2.7,1.6-3.4,2.4c-0.7,0.7-1,1.3-1,1.6c0,0.3,0.3,0.5,0.8,0.6l0.3,0.1l0.4,0c1.1,0.2,2,0.7,2.7,1.5c0.7,0.9,1,1.9,1,3.1
			c0,1.3-0.4,2.3-1.3,3.2C117.2,109.9,116,110.5,114.5,110.5z"/>
	</g>
</g>
<g>
	<g>
		<path d="M44.9,29.3l-3.2,12.5h-3.4l-2-7.7l-1.9,7.7h-3.4l-3.2-12.5H31l1.7,8.4l2.1-8.4h3.1l2,8.4l1.8-8.4H44.9z"/>
		<path d="M57.9,35.6c0,2-0.5,3.6-1.6,4.8c-1.1,1.2-2.6,1.7-4.4,1.7c-1.9,0-3.4-0.6-4.4-1.8c-1.1-1.2-1.6-2.8-1.6-4.8
			c0-2,0.5-3.6,1.6-4.8c1.1-1.2,2.6-1.8,4.4-1.8c1.9,0,3.4,0.6,4.4,1.7C57.3,31.9,57.9,33.5,57.9,35.6z M54.6,35.5
			c0-0.7-0.1-1.4-0.2-1.9c-0.2-0.5-0.4-1-0.6-1.3c-0.3-0.3-0.6-0.6-0.9-0.7c-0.3-0.1-0.7-0.2-1.1-0.2c-0.4,0-0.7,0.1-1.1,0.2
			c-0.3,0.1-0.6,0.4-0.9,0.7c-0.3,0.3-0.5,0.8-0.6,1.3c-0.2,0.5-0.2,1.2-0.2,1.9c0,0.8,0.1,1.4,0.2,1.9c0.2,0.5,0.4,0.9,0.6,1.3
			c0.3,0.3,0.6,0.6,0.9,0.7c0.3,0.1,0.7,0.2,1.1,0.2c0.4,0,0.7-0.1,1.1-0.2c0.3-0.2,0.6-0.4,0.9-0.7c0.3-0.4,0.5-0.8,0.6-1.3
			C54.6,37,54.6,36.3,54.6,35.5z"/>
		<path d="M71.3,41.8h-3.8L64,37.2h-1.1v4.6h-3.1V29.3h5c0.7,0,1.3,0,1.8,0.1c0.5,0.1,1,0.3,1.4,0.5c0.4,0.3,0.8,0.6,1.1,1.1
			c0.3,0.4,0.4,1,0.4,1.7c0,1-0.2,1.7-0.6,2.3c-0.4,0.6-1,1.1-1.7,1.4L71.3,41.8z M66.2,33.1c0-0.3-0.1-0.6-0.2-0.8
			c-0.1-0.2-0.3-0.4-0.6-0.5c-0.2-0.1-0.4-0.1-0.7-0.2c-0.2,0-0.5,0-0.9,0h-1V35h0.9c0.4,0,0.8,0,1.1-0.1c0.3-0.1,0.6-0.2,0.8-0.3
			c0.2-0.2,0.4-0.3,0.4-0.6C66.2,33.8,66.2,33.5,66.2,33.1z"/>
		<path d="M83.2,41.8h-3.8L76,36.7l-0.6,0.9v4.2h-3.1V29.3h3.1v5.6l4-5.6H83l-4.5,5.8L83.2,41.8z"/>
	</g>
	<g>
		<path d="M69.1,99.6c0,0.1,0,0.1-0.1,0.2c0,0-0.1,0-0.2,0c-0.2,0-0.6,0-1,0c-0.6,0-1,0-1.1,0c-0.1,0-0.2-0.1-0.2-0.2
			c0-0.3,0-0.8,0-1.4c0-0.6,0-1.1,0-1.4c0-0.2,0-0.2-0.1-0.3c-0.1,0-0.6,0-1.4,0c-0.8,0-1.3,0-1.4,0c-0.1,0-0.1,0.1-0.1,0.3
			c0,0.3,0,0.8,0,1.3c0,0.6,0,1,0,1.4c0,0.1-0.1,0.2-0.2,0.2c-0.1,0-0.5,0-1.1,0c-0.5,0-0.9,0-1,0c-0.1,0-0.2-0.1-0.2-0.2
			c0-0.4,0-1,0.1-1.9c0-0.8,0.1-1.5,0.1-1.9c0-0.4,0-1.1-0.1-2c0-0.9-0.1-1.6-0.1-2c0-0.1,0-0.1,0.1-0.1c0.1,0,0.3,0,0.5,0
			c0.2,0,0.4,0,0.5,0c0.1,0,0.3,0,0.6,0c0.2,0,0.4,0,0.6,0c0.1,0,0.1,0,0.1,0.1c0,0.3,0,0.7-0.1,1.3c0,0.6-0.1,1-0.1,1.3
			c0,0.1,0,0.2,0.1,0.2c0.1,0,0.6,0,1.5,0c0.8,0,1.3,0,1.4,0c0.1,0,0.1-0.1,0.1-0.2c0-0.3,0-0.7,0-1.3c0-0.6,0-1,0-1.3
			c0-0.1,0-0.2,0.1-0.2c0.1,0,0.3,0,0.5,0c0.2,0,0.4,0,0.5,0c0.1,0,0.3,0,0.5,0c0.2,0,0.4,0,0.5,0c0.1,0,0.2,0,0.2,0.1
			c0,0.4,0,1.1-0.1,2c0,0.9-0.1,1.6-0.1,2c0,0.4,0,1.1,0.1,1.9C69.1,98.6,69.1,99.2,69.1,99.6z"/>
		<path d="M77.8,99.7c0,0.1,0,0.1-0.1,0.1c-0.1,0-0.5,0-1.1,0c-0.6,0-0.9,0-1.1,0c-0.1,0-0.2-0.1-0.2-0.3c-0.1-0.6-0.2-0.9-0.3-0.9
			c-0.1,0-0.6,0-1.5,0c-0.7,0-1,0-1,0.1c-0.1,0.1-0.1,0.3-0.2,0.6c-0.1,0.3-0.2,0.5-0.3,0.5c-0.1,0-0.6,0-1.3,0
			c-0.6,0-0.9-0.1-0.9-0.2c0-0.1,0.4-1.3,1.3-3.7c0.9-2.6,1.5-4,1.5-4.2c0-0.1,0.1-0.2,0.2-0.2c0.1,0,0.3,0,0.5,0c0.2,0,0.4,0,0.5,0
			c0.1,0,0.3,0,0.5,0c0.2,0,0.4,0,0.5,0c0.1,0,0.1,0.1,0.2,0.2c0.2,0.4,0.7,1.8,1.7,4.2C77.3,98.3,77.8,99.6,77.8,99.7z M73.7,94.4
			c-0.1,0.2-0.2,0.5-0.4,1.1c-0.2,0.6-0.3,1-0.3,1.1c0,0.1,0.1,0.1,0.3,0.1c0.1,0,0.3,0,0.6,0c0.3,0,0.4,0,0.4-0.1c0,0,0,0,0-0.1
			c0-0.1-0.1-0.5-0.3-1.1C73.9,94.9,73.8,94.6,73.7,94.4z"/>
		<path d="M85.3,99.8c0,0,0,0-0.1,0.1c-0.1,0-0.5,0-1.1,0c-0.5,0-0.8,0-1,0c-0.1,0-0.1,0-0.1,0c0,0-0.1,0-0.1-0.1
			c-0.1-0.2-0.1-0.4-0.3-0.7c-0.2-0.4-0.4-1-0.7-1.7c-0.1-0.2-0.2-0.2-0.5-0.2c0.1,0-0.1,0-0.6,0c-0.1,0-0.1,0.1-0.1,0.3
			c0,0.3,0,0.7,0.1,1.2c0,0.5,0.1,0.9,0.1,1.2c0,0.1,0,0.1-0.1,0.1c-0.1,0-0.1,0-0.2,0c-0.2,0-0.6,0-1.1,0c-0.6,0-0.9,0-1,0
			c-0.1,0-0.2-0.1-0.2-0.2c0-0.4,0-1.1,0.1-1.9c0-0.9,0.1-1.5,0.1-1.9c0-1.6,0-2.9-0.1-3.8l0-0.1c0-0.1,0.1-0.1,0.2-0.1
			c0.1,0,0.7,0,1.8-0.1c0.7,0,1.3,0,1.7,0c0.9,0,1.6,0.2,2.2,0.6c0.6,0.4,0.9,1.1,0.9,1.9c0,0.6-0.1,1-0.2,1.3
			c-0.2,0.3-0.5,0.7-0.9,1c-0.1,0.1-0.1,0.1-0.1,0.2c0,0,0.2,0.5,0.7,1.5C85,99.1,85.3,99.7,85.3,99.8z M82.8,94.6
			c0-0.5-0.2-0.8-0.5-1c-0.2-0.1-0.6-0.2-1.1-0.2c-0.4,0-0.6,0.1-0.6,0.2c0,0.1,0,0.5,0,1.1c0,0.1,0,0.2,0,0.4s0,0.3,0,0.4
			c0,0,0.1,0,0.2,0.1c0.2,0,0.5,0.1,0.7,0.1C82.4,95.6,82.8,95.2,82.8,94.6z"/>
		<path d="M93.5,95.7c0,1.1-0.4,2.1-1.1,2.9c-0.6,0.7-1.5,1.1-2.7,1.2c-0.2,0-0.8,0-1.8,0c-0.2,0-0.5,0-0.9,0c-0.4,0-0.7,0-0.9,0
			c-0.1,0-0.2,0-0.2-0.1c0-0.4,0-1.1,0-1.9c0-0.8,0-1.5,0-1.9c0-0.4,0-1.1,0-2c0-0.9,0-1.5,0-2c0-0.1,0.1-0.1,0.2-0.1
			c0.3,0,0.7,0,1.3,0c1.2,0,2,0,2.3,0.1c0.9,0.1,1.6,0.3,2.1,0.7c0.5,0.3,0.9,0.8,1.2,1.5C93.3,94.5,93.5,95.1,93.5,95.7z
			 M91.2,95.7c0-0.7-0.2-1.2-0.6-1.6c-0.4-0.4-0.9-0.6-1.6-0.6c-0.6,0-0.9,0.1-0.9,0.2c0,0.2,0,0.6,0,1c0,0.5,0,0.8,0,1
			c0,0.2,0,0.6,0,1c0,0.4,0,0.8,0,1c0,0.2,0.3,0.2,0.9,0.2c0.7,0,1.2-0.2,1.6-0.7C91.1,97,91.2,96.4,91.2,95.7z"/>
	</g>
	<g>
		<path d="M60.5,52.9c0,0.1,0,0.1-0.1,0.2c0,0-0.1,0-0.2,0c-0.2,0-0.6,0-1,0c-0.6,0-1,0-1.1,0c-0.1,0-0.2-0.1-0.2-0.2
			c0-0.3,0-0.8,0-1.4c0-0.6,0-1.1,0-1.4c0-0.2,0-0.2-0.1-0.3c-0.1,0-0.6,0-1.4,0c-0.8,0-1.3,0-1.4,0c-0.1,0-0.1,0.1-0.1,0.3
			c0,0.3,0,0.8,0,1.3c0,0.6,0,1,0,1.4c0,0.1-0.1,0.2-0.2,0.2c-0.1,0-0.5,0-1.1,0c-0.5,0-0.9,0-1,0c-0.1,0-0.2-0.1-0.2-0.2
			c0-0.4,0-1,0.1-1.9c0-0.8,0.1-1.5,0.1-1.9c0-0.4,0-1.1-0.1-2c0-0.9-0.1-1.6-0.1-2c0-0.1,0-0.1,0.1-0.1c0.1,0,0.3,0,0.5,0
			s0.4,0,0.5,0c0.1,0,0.3,0,0.6,0c0.2,0,0.4,0,0.6,0c0.1,0,0.1,0,0.1,0.1c0,0.3,0,0.7-0.1,1.3c0,0.6-0.1,1-0.1,1.3
			c0,0.1,0,0.2,0.1,0.2c0.1,0,0.6,0,1.5,0c0.8,0,1.3,0,1.4,0c0.1,0,0.1-0.1,0.1-0.2c0-0.3,0-0.7,0-1.3c0-0.6,0-1,0-1.3
			c0-0.1,0-0.2,0.1-0.2c0.1,0,0.3,0,0.5,0c0.2,0,0.4,0,0.5,0c0.1,0,0.3,0,0.5,0c0.2,0,0.4,0,0.5,0c0.1,0,0.2,0,0.2,0.1
			c0,0.4,0,1.1-0.1,2c0,0.9-0.1,1.6-0.1,2c0,0.4,0,1.1,0.1,1.9C60.5,51.8,60.5,52.5,60.5,52.9z"/>
		<path d="M69.2,52.9c0,0.1,0,0.1-0.1,0.1c-0.1,0-0.5,0-1.1,0c-0.6,0-0.9,0-1.1,0c-0.1,0-0.2-0.1-0.2-0.3c-0.1-0.6-0.2-0.9-0.3-0.9
			c-0.1,0-0.6,0-1.5,0c-0.7,0-1,0-1,0.1c-0.1,0.1-0.1,0.3-0.2,0.6c-0.1,0.3-0.2,0.5-0.3,0.5c-0.1,0-0.6,0-1.3,0
			c-0.6,0-0.9-0.1-0.9-0.2c0-0.1,0.4-1.3,1.3-3.7c0.9-2.6,1.5-4,1.5-4.2c0-0.1,0.1-0.2,0.2-0.2c0.1,0,0.3,0,0.5,0c0.2,0,0.4,0,0.5,0
			c0.1,0,0.3,0,0.5,0c0.2,0,0.4,0,0.5,0c0.1,0,0.1,0.1,0.2,0.2c0.2,0.4,0.7,1.8,1.7,4.2C68.7,51.6,69.2,52.8,69.2,52.9z M65.1,47.7
			c-0.1,0.2-0.2,0.5-0.4,1.1c-0.2,0.6-0.3,1-0.3,1.1c0,0.1,0.1,0.1,0.3,0.1c0.1,0,0.3,0,0.6,0c0.3,0,0.4,0,0.4-0.1c0,0,0,0,0-0.1
			c0-0.1-0.1-0.5-0.3-1.1C65.3,48.2,65.2,47.8,65.1,47.7z"/>
		<path d="M76.7,53c0,0,0,0-0.1,0.1c-0.1,0-0.5,0-1.1,0c-0.5,0-0.8,0-1,0c-0.1,0-0.1,0-0.1,0c0,0-0.1,0-0.1-0.1
			c-0.1-0.2-0.1-0.4-0.3-0.7c-0.2-0.4-0.4-1-0.7-1.7c-0.1-0.2-0.2-0.2-0.5-0.2c0.1,0-0.1,0-0.6,0c-0.1,0-0.1,0.1-0.1,0.3
			c0,0.3,0,0.7,0.1,1.2c0,0.5,0.1,0.9,0.1,1.2c0,0.1,0,0.1-0.1,0.1c-0.1,0-0.1,0-0.2,0c-0.2,0-0.6,0-1.1,0c-0.6,0-0.9,0-1,0
			c-0.1,0-0.2-0.1-0.2-0.2c0-0.4,0-1.1,0.1-1.9c0-0.9,0.1-1.5,0.1-1.9c0-1.6,0-2.9-0.1-3.8l0-0.1c0-0.1,0.1-0.1,0.2-0.1
			c0.1,0,0.7,0,1.8-0.1c0.7,0,1.3,0,1.7,0c0.9,0,1.6,0.2,2.2,0.6c0.6,0.4,0.9,1.1,0.9,1.9c0,0.6-0.1,1-0.2,1.3
			c-0.2,0.3-0.5,0.7-0.9,1c-0.1,0.1-0.1,0.1-0.1,0.2c0,0,0.2,0.5,0.7,1.5C76.4,52.4,76.7,52.9,76.7,53z M74.3,47.8
			c0-0.5-0.2-0.8-0.5-1c-0.2-0.1-0.6-0.2-1.1-0.2c-0.4,0-0.6,0.1-0.6,0.2c0,0.1,0,0.5,0,1.1c0,0.1,0,0.2,0,0.4c0,0.2,0,0.3,0,0.4
			c0,0,0.1,0,0.2,0.1c0.2,0,0.5,0.1,0.7,0.1C73.8,48.8,74.3,48.5,74.3,47.8z"/>
		<path d="M84.9,49c0,1.1-0.4,2.1-1.1,2.9c-0.6,0.7-1.5,1.1-2.7,1.2c-0.2,0-0.8,0-1.8,0c-0.2,0-0.5,0-0.9,0c-0.4,0-0.7,0-0.9,0
			c-0.1,0-0.2,0-0.2-0.1c0-0.4,0-1.1,0-1.9c0-0.8,0-1.5,0-1.9c0-0.4,0-1.1,0-2c0-0.9,0-1.5,0-2c0-0.1,0.1-0.1,0.2-0.1
			c0.3,0,0.7,0,1.3,0c1.2,0,2,0,2.3,0.1c0.9,0.1,1.6,0.3,2.1,0.7c0.5,0.3,0.9,0.8,1.2,1.5C84.7,47.7,84.9,48.3,84.9,49z M82.7,49
			c0-0.7-0.2-1.2-0.6-1.6c-0.4-0.4-0.9-0.6-1.6-0.6c-0.6,0-0.9,0.1-0.9,0.2c0,0.2,0,0.6,0,1c0,0.5,0,0.8,0,1c0,0.2,0,0.6,0,1
			c0,0.4,0,0.8,0,1c0,0.2,0.3,0.2,0.9,0.2c0.7,0,1.2-0.2,1.6-0.7C82.5,50.2,82.7,49.7,82.7,49z"/>
	</g>
	<g>
		<g>
			<path d="M71.4,78.1c0,0.6-0.1,1.1-0.3,1.7c-0.2,0.5-0.5,1-0.8,1.3c-0.2,0.2-0.4,0.4-0.7,0.6c-0.3,0.2-0.5,0.3-0.8,0.5
				c-0.3,0.1-0.6,0.2-1,0.3c-0.4,0.1-0.8,0.1-1.2,0.1H65v4.1h-3.1V74.2h4.9c0.7,0,1.3,0.1,1.9,0.2c0.5,0.1,1,0.3,1.4,0.6
				c0.5,0.3,0.8,0.7,1.1,1.3C71.3,76.8,71.4,77.4,71.4,78.1z M68.2,78.2c0-0.4-0.1-0.7-0.3-0.9c-0.2-0.3-0.4-0.4-0.6-0.5
				c-0.3-0.1-0.6-0.2-0.9-0.2c-0.3,0-0.6,0-1.1,0H65v3.7h0.2c0.3,0,0.6,0,0.8,0c0.3,0,0.5,0,0.7-0.1c0.2,0,0.3-0.1,0.5-0.2
				c0.2-0.1,0.3-0.2,0.4-0.3c0.2-0.2,0.4-0.4,0.4-0.6C68.2,78.9,68.2,78.6,68.2,78.2z"/>
			<path d="M81.5,86.7h-8.4V74.2h3.1v10.1h5.2V86.7z"/>
			<path d="M81.6,86.7l4.2-12.5h3.4l4.2,12.5h-3.2l-0.8-2.6h-3.9l-0.8,2.6H81.6z M88.8,81.9l-1.3-4.1l-1.3,4.1H88.8z"/>
			<path d="M105.2,74.2l-4.3,7.3v5.2h-3.1v-5.1l-4.4-7.4h3.6l2.5,4.5l2.4-4.5H105.2z"/>
		</g>
	</g>
</g>
</svg>
